PathFileType	4	(X/Y/Z)	/Users/visionmauri/4_2_1_f_1_Sports2D/4_2_1_f_1_Sports2D_m_person00.trc
DataRate	CameraRate	NumFrames	NumMarkers	Units	OrigDataRate	OrigDataStartFrame	OrigNumFrames
30.0	30.0	8	22	m	30.0	238	382
Frame#	Time	Hip			RHip			RKnee			RAnkle			RBigToe			RSmallToe			RHeel			LHip			LKnee			LAnkle			LBigToe			LSmallToe			LHeel			Neck			Head			Nose			RShoulder			RElbow			RWrist			LShoulder			LElbow			LWrist			
		X1	Y1	Z1	X2	Y2	Z2	X3	Y3	Z3	X4	Y4	Z4	X5	Y5	Z5	X6	Y6	Z6	X7	Y7	Z7	X8	Y8	Z8	X9	Y9	Z9	X10	Y10	Z10	X11	Y11	Z11	X12	Y12	Z12	X13	Y13	Z13	X14	Y14	Z14	X15	Y15	Z15	X16	Y16	Z16	X17	Y17	Z17	X18	Y18	Z18	X19	Y19	Z19	X20	Y20	Z20	X21	Y21	Z21	X22	Y22	Z22
238	7.954155730533682	1.2454594690011114	0.9200740689027761	0.0301	1.1427161097616347	0.9158449386033422	0.0301	1.0768469540783963	0.609188823390448	0.129	0.9881781365372297	0.25237151708229383	0.023	0.98664428132918	0.13185931373345305	0.2179	0.9495700844609977	0.15989248200202794	0.1804	0.9883662768198239	0.19408764635957854	-0.0119	1.3528063190850288	0.895355803890345	0.0301	1.345694803023923	0.5509769130477878	0.129	1.2418826125701736	0.17303806129836172	0.023	1.312457639125763	0.04676411260926505	0.2179	1.3429366530178006	0.06046092051065314	0.1804	1.1979789913215824	0.12551322231646053	-0.0119	1.2935339085122861	1.4273932516976704	0.0008	1.2998400519990392	1.6649790733476086	0.0655	1.2588350641683914	1.498068734550819	0.1076	1.1164539620770517	1.391335363335705	-0.01275	0.969485088633592	1.1753259372450622	0.0702	0.853813161581864	0.9960417444669607	0.1076	1.4678327429600562	1.3545591988278727	-0.01275	1.5068061860939073	1.1016594364492371	0.0702	1.525232375881382	0.9026591793773542	0.1076
239	7.987576552930882	1.2466633493911934	0.9142106187154988	0.0301	1.1449889530951056	0.9138827451528159	0.0301	1.0768966887632112	0.6030393489221414	0.129	0.9846420062036532	0.24591022264141452	0.023	0.9837107072934849	0.1269712058027155	0.2179	0.940270725733694	0.14909596103080147	0.1804	0.9846148512977043	0.18829506569942228	-0.0119	1.353587744280491	0.8910957010991828	0.0301	1.3325420167830777	0.5428239776331382	0.129	1.2534749953324553	0.14996051816610312	0.023	1.3249490080345474	0.03209541766748272	0.2179	1.3533177789580149	0.0416739531038593	0.1804	1.2106384339616996	0.09758517741985889	-0.0119	1.2980679705546736	1.4240867052368797	0.0008	1.305002866503613	1.6636107292856954	0.0655	1.2640498804945421	1.4965018786817612	0.1076	1.1203495549071787	1.3902641668117002	-0.01275	0.973827907045074	1.1773249128731689	0.0702	0.854722834651898	0.9977793067490301	0.1076	1.473860907714438	1.3531512791120963	-0.01275	1.512268234248612	1.1002682340572536	0.0702	1.5264195738326927	0.9037766159697139	0.1076
240	8.020997375328083	1.2485961999420458	0.9082562845337164	0.0301	1.147280201436894	0.9109316156312924	0.0301	1.0781352768171233	0.5977185224733447	0.129	0.9821295406682239	0.24101068626741803	0.023	0.9807497921661812	0.12238368681270717	0.2179	0.933984027831939	0.1413040817032477	0.1804	0.983044672193514	0.1843420228373274	-0.0119	1.353257421289512	0.8867245030714586	0.0301	1.321746512776331	0.5376806166230133	0.129	1.2628425494039492	0.13449968195054915	0.023	1.3322405838052414	0.024984464548130598	0.2179	1.3591796400440472	0.031817954071851326	0.1804	1.2222775863963933	0.07679655383616676	-0.0119	1.3037154776791227	1.420200239562072	0.0008	1.3108535559707715	1.6631402085642464	0.0655	1.2708215644033762	1.4924509595350712	0.1076	1.1223214644288804	1.3890773633116644	-0.01275	0.9773790229610383	1.1775396643780836	0.0702	0.8555154658818267	0.9989428111803029	0.1076	1.4802500633512004	1.3527160575472825	-0.01275	1.5174545218507423	1.098961764542254	0.0702	1.5278096499576348	0.9068810571495433	0.1076
241	8.054418197725283	1.2522351485160867	0.9028702443300801	0.0301	1.1493603028450887	0.9056973144539758	0.0301	1.0805255874034703	0.5978737541813038	0.129	0.9830196364023756	0.2409328079250747	0.023	0.9800252824603634	0.12196558152627024	0.2179	0.9332679123057493	0.14103737693800056	0.1804	0.9832506169377743	0.18303140049328698	-0.0119	1.353386348239772	0.8805680945712403	0.0301	1.3147087977774572	0.5341346401073958	0.129	1.2667600636711898	0.1257585298911962	0.023	1.3307812970909731	0.021873317016480306	0.2179	1.3605478880096316	0.02752236765280603	0.1804	1.2291459217053375	0.06443786365216204	-0.0119	1.3104829470240196	1.4180474398594018	0.0008	1.3178018253517905	1.66351614737087	0.0655	1.2792822530025945	1.4882130831943583	0.1076	1.1250883442773103	1.388439109657008	-0.01275	0.9805131097369316	1.1774660203137954	0.0702	0.8566796254429585	0.9990497931471066	0.1076	1.4876650020638102	1.3518751127551951	-0.01275	1.5225179250951282	1.0980576062596954	0.0702	1.5303218363029105	0.9096283543315932	0.1076
242	8.087839020122484	1.2575796963796042	0.8975414560705882	0.0301	1.1518989991587494	0.9003206494192068	0.0301	1.082912751684745	0.6012669233262907	0.129	0.985143741752222	0.2429097742231037	0.023	0.9807728395091113	0.12323078713242752	0.2179	0.9343686858874124	0.14317822119785423	0.1804	0.9834431101643503	0.1830300901415983	-0.0119	1.3560762409782803	0.8744463777018711	0.0301	1.3113315393476117	0.5301132236967803	0.129	1.2643684091576597	0.1179583015121281	0.023	1.3200503369770533	0.015081351179083897	0.2179	1.3560671858698181	0.019893122309079244	0.1804	1.2286352517109564	0.05557127768272367	-0.0119	1.3184576400371553	1.4172491456943752	0.0008	1.325843542742167	1.6634279238815883	0.0655	1.2888995511966959	1.4854277483163492	0.1076	1.1316656764413762	1.3876701066273895	-0.01275	0.9838932988007552	1.1778017687577906	0.0702	0.858388126860657	0.9984624892836935	0.1076	1.4960113412290323	1.3508128460989073	-0.01275	1.5274408166798632	1.0975041784753827	0.0702	1.5325303690903211	0.9103200102261839	0.1076
243	8.121259842519684	1.26327983774659	0.8927725855192771	0.0301	1.1559179692766612	0.8982587974506859	0.0301	1.0847564922802204	0.6043290306586068	0.129	0.9854818227770102	0.24354714163917265	0.023	0.9812635752328572	0.12241497254391343	0.2179	0.9341166980636993	0.14207681327126526	0.1804	0.9830949774011444	0.18192280197415892	-0.0119	1.3618803453833284	0.8716286043715704	0.0301	1.3099385276379032	0.5250585697860496	0.129	1.2577383340203585	0.10660352457106015	0.023	1.301747540028586	0.0005094110792253097	0.2179	1.3444380522492327	0.004236482427066321	0.1804	1.2222667105609346	0.044862612509756435	-0.0119	1.3279595469601055	1.4167015012940976	0.0008	1.3360903767502073	1.6619493711277915	0.0655	1.299810295707257	1.4838767715156975	0.1076	1.14199265597206	1.3859985935364048	-0.01275	0.9881562337771734	1.178044373526674	0.0702	0.8610711954506242	0.9988796644968255	0.1076	1.5050451987425044	1.3497454290807025	-0.01275	1.532287499415302	1.096339989701184	0.0702	1.533646387913941	0.9085091552796116	0.1076
244	8.154680664916885	1.2677118828952167	0.8890821426861444	0.0301	1.1608079237775757	0.8980417561851608	0.0301	1.087074944026037	0.6057885635383053	0.129	0.984611894400184	0.24341693371783585	0.023	0.9814999906203061	0.1195232585604243	0.2179	0.9333650702702466	0.13877518000131114	0.1804	0.9835335847727831	0.17908894273179612	-0.0119	1.3679349482307772	0.8695942935096189	0.0301	1.3082964005655253	0.5173048957391372	0.129	1.2498597568989074	0.0930835398093157	0.023	1.2816945065783072	-0.018672008128355764	0.2179	1.3300861869380847	-0.015305927377792572	0.1804	1.2141900293395016	0.03299228825234499	-0.0119	1.3385029639061035	1.4167880331930403	0.0008	1.3497122310156524	1.6605472479016685	0.0655	1.3102563503340814	1.4839052684635774	0.1076	1.153420768198702	1.3844107402292951	-0.01275	0.9939467378628666	1.1773922297443615	0.0702	0.8648896350153054	1.001528640239195	0.1076	1.5153320781403443	1.347961204413244	-0.01275	1.538837854413972	1.0939884089847993	0.0702	1.5352705591575821	0.9046877145345664	0.1076
245	8.188101487314084	1.270404557742645	0.8856077894230933	0.0301	1.164661538168337	0.8955305513403289	0.0301	1.090062247083515	0.6028478215908447	0.129	0.9846227674389434	0.2438284112588726	0.023	0.9817781424335258	0.11633125390572349	0.2179	0.933832577985675	0.13667249538840973	0.1804	0.9861206254545769	0.17678348035311686	-0.0119	1.3714168225450523	0.8636923066363102	0.0301	1.3068581172764138	0.5067527133814491	0.129	1.2429950110596264	0.08156275792194641	0.023	1.2683999754636444	-0.03679743894339801	0.2179	1.3207995928406682	-0.032999521403792934	0.1804	1.2074483779383591	0.024101146429286617	-0.0119	1.3493892453088299	1.4171203044296505	0.0008	1.365175316187628	1.66086625047907	0.0655	1.3185813445158052	1.4852360434013694	0.1076	1.1644369538205823	1.3850732425976233	-0.01275	1.0021593274139275	1.1761734686397765	0.0702	0.8689649249240009	1.004100755968333	0.1076	1.5274027366837495	1.3447268608240524	-0.01275	1.5489693705319285	1.0908521096468284	0.0702	1.5381597639627822	0.9007670099693541	0.1076
